<svg xmlns="http://www.w3.org/2000/svg" xmlns:xlink="http://www.w3.org/1999/xlink" fill="none" version="1.1" width="256" height="256" viewBox="0 0 256 256"><g><g transform="matrix(0.8686734437942505,0.49538519978523254,-0.5046290755271912,0.8633362650871277,19.6265448455232,-40.91282324460701)"><rect x="87.06656646728516" y="16.23448371887207" width="42.73069381713867" height="172.370849609375" rx="21.365346908569336" fill="#FF546D" fill-opacity="1"/></g><g transform="matrix(0.8686733841896057,0.49538522958755493,-0.5046290159225464,0.8633362650871277,66.28095295400271,-95.3919900424903)"><rect x="213.4701385498047" y="75.7916030883789" width="44.54129409790039" height="183.176513671875" rx="22.270647048950195" fill="#00D4E6" fill-opacity="1"/></g><g transform="matrix(0.8686733841896057,0.49538522958755493,-0.5046290159225464,0.8633362650871277,62.7900149010145,2.4993112861345708)"><path d="M62.94592803344727,167.89095256347656C53.92442803344727,170.41345256347657,43.714328033447266,174.13115256347658,36.222698033447266,168.53495256347657C30.816458033447265,164.49665256347657,27.319828359908264,158.06935256347657,27.319828033447287,150.83025256347656C27.319827677292267,142.93285256347656,31.481518033447266,136.00135256347656,37.744228033447264,132.08415256347655C44.68572803344726,127.74215256347657,53.406928033447265,126.69799256347656,61.27562803344727,124.39838256347656C72.30322803344727,121.17555256347656,91.37182803344727,117.31825256347656,119.47422803344726,117.31825256347656C147.57682803344727,117.31825256347656,166.64482803344725,121.17554256347657,177.67282803344727,124.39836256347657C185.54182803344727,126.69799256347656,194.26282803344728,127.74215256347657,201.20382803344725,132.08415256347655C207.46682803344726,136.00135256347656,211.62782803344726,142.93285256347656,211.62782803344726,150.83025256347656C211.62782803344726,158.06935256347657,208.13282803344725,164.49665256347657,202.72582803344727,168.53495256347657C195.23382803344725,174.13115256347658,185.02382803344727,170.41345256347657,176.00282803344726,167.89095256347656C165.15082803344725,164.85675256347656,147.05682803344726,161.58585256347658,119.47422803344726,161.58585256347658C91.89162803344726,161.58585256347658,73.79732803344726,164.85675256347656,62.94592803344727,167.89095256347656C62.94592803344727,167.89095256347656,62.94592803344727,167.89095256347656,62.94592803344727,167.89095256347656Z" fill="#6D86F5" fill-opacity="1"/></g><g transform="matrix(0.8686733841896057,0.49538522958755493,0.5046290755271912,-0.8633362650871277,-14.58021831917722,53.119719740366236)"><path d="M104.20272200927735,97.31228587646484C95.18122200927735,99.83478587646485,84.97112200927734,103.55248587646484,77.47949200927735,97.95628587646485C72.07325200927734,93.91798587646485,68.57662233573835,87.49068587646485,68.57662200927737,80.25158587646484C68.57662165312234,72.35418587646484,72.73831200927734,65.42268587646484,79.00102200927735,61.505485876464846C85.94252200927734,57.16348587646485,94.66372200927734,56.11932587646484,102.53242200927735,53.81971587646484C113.56002200927735,50.596885876464846,132.62862200927736,46.739585876464844,160.73102200927735,46.739585876464844C188.83362200927735,46.739585876464844,207.90162200927733,50.59687587646484,218.92962200927735,53.81969587646484C226.79862200927735,56.11932587646484,235.51962200927736,57.16348587646485,242.46062200927733,61.505485876464846C248.72362200927734,65.42268587646484,252.88462200927734,72.35418587646484,252.88462200927734,80.25158587646484C252.88462200927734,87.49068587646485,249.38962200927733,93.91798587646485,243.98262200927735,97.95628587646485C236.49062200927733,103.55248587646484,226.28062200927735,99.83478587646485,217.25962200927734,97.31228587646484C206.40762200927733,94.27808587646484,188.31362200927734,91.00718587646485,160.73102200927735,91.00718587646485C133.14842200927734,91.00718587646485,115.05412200927734,94.27808587646484,104.20272200927735,97.31228587646484C104.20272200927735,97.31228587646484,104.20272200927735,97.31228587646484,104.20272200927735,97.31228587646484Z" fill="#FFAA50" fill-opacity="1"/></g><g transform="matrix(0.8686734437942505,0.49538519978523254,-0.5046290159225464,0.8633362650871277,14.089734093009241,-46.42857274736956)"><rect x="94.630859375" y="3.2938835620880127" width="42.73069381713867" height="97.42699432373047" rx="21.365346908569336" fill="#FF546D" fill-opacity="1"/></g><g transform="matrix(0.8686733841896057,0.49538522958755493,-0.5046290755271912,0.8633362650871277,94.16635674051304,-67.61384206533057)"><rect x="175.37582397460938" y="140.96461486816406" width="44.54129409790039" height="107.6871337890625" rx="22.270647048950195" fill="#00D4E6" fill-opacity="1"/></g></g></svg>