<svg xmlns="http://www.w3.org/2000/svg" xmlns:xlink="http://www.w3.org/1999/xlink" fill="none" version="1.1" width="837" height="837" viewBox="0 0 837 837"><defs><filter id="master_svg0_15_239" filterUnits="objectBoundingBox" color-interpolation-filters="sRGB" x="-300" y="-300" width="987" height="987"><feFlood flood-opacity="0" result="BackgroundImageFix"/><feBlend mode="normal" in="SourceGraphic" in2="BackgroundImageFix" result="shape"/><feGaussianBlur stdDeviation="75" result="effect1_foregroundBlur"/></filter><mask id="master_svg1_15_256" style="mask-type:alpha" maskUnits="userSpaceOnUse"><g><ellipse cx="418.5" cy="418.5" rx="208.5" ry="208.5" fill="#FFFFFF" fill-opacity="1"/></g></mask><linearGradient x1="0.5" y1="-3.0616171314629196e-17" x2="0.5" y2="1" id="master_svg2_0_1268"><stop offset="0%" stop-color="#4D64DE" stop-opacity="1"/><stop offset="100%" stop-color="#B5C0FF" stop-opacity="1"/></linearGradient><linearGradient x1="0.07692305743694305" y1="0.07467532902956009" x2="0.6971153616905212" y2="1.149350643157959" id="master_svg3_0_1275"><stop offset="0%" stop-color="#B5C0FF" stop-opacity="1"/><stop offset="100%" stop-color="#5464DA" stop-opacity="1"/></linearGradient><linearGradient x1="0.5" y1="-3.0616171314629196e-17" x2="0.5" y2="1" id="master_svg4_0_1289"><stop offset="0%" stop-color="#B0BCFF" stop-opacity="1"/><stop offset="100%" stop-color="#B0BCFF" stop-opacity="0"/></linearGradient><linearGradient x1="0.5" y1="-3.0616171314629196e-17" x2="0.5" y2="1" id="master_svg5_0_1289"><stop offset="0%" stop-color="#B0BCFF" stop-opacity="1"/><stop offset="100%" stop-color="#B0BCFF" stop-opacity="0"/></linearGradient><linearGradient x1="0.5" y1="-3.0616171314629196e-17" x2="0.5" y2="1" id="master_svg6_0_1293"><stop offset="0%" stop-color="#B0BCFF" stop-opacity="0.5299999713897705"/><stop offset="100%" stop-color="#B0BCFF" stop-opacity="0"/></linearGradient></defs><g><g filter="url(#master_svg0_15_239)"><ellipse cx="418.5" cy="418.5" rx="193.5" ry="193.5" fill="#C1CBFF" fill-opacity="1"/></g><g><ellipse cx="418.5" cy="418.5" rx="221.5" ry="221.5" fill="#EFF2FF" fill-opacity="1"/><ellipse cx="418.5" cy="418.5" rx="215.5" ry="215.5" fill-opacity="0" stroke-opacity="1" stroke="#FFFFFF" fill="none" stroke-width="12"/></g><g mask="url(#master_svg1_15_256)"><g><path d="M393.61310000000003,340.7446L393.61310000000003,329.8867Q393.61310000000003,329.3004,393.6419,328.7147Q393.6707,328.129,393.7281,327.5454Q393.7856,326.9619,393.8717,326.3818Q393.9577,325.8018,394.0721,325.2267Q394.1865,324.6515,394.329,324.0827Q394.4715,323.5139,394.6417,322.9528Q394.8119,322.3916,395.0095,321.8395Q395.207,321.2874,395.4314,320.7456Q395.6558,320.2039,395.9065,319.6738Q396.1572,319.1437,396.4337,318.6266Q396.7101,318.1094,397.0115,317.6064Q397.313,317.1035,397.6388,316.6159Q397.9646,316.1284,398.3139,315.65736Q398.6632,315.18637,399.03520000000003,314.73308Q399.4072,314.2798,399.801,313.84531Q400.1948,313.41083,400.6094,312.99619Q401.0241,312.58154,401.4586,312.18775Q401.89300000000003,311.79396,402.3463,311.42195Q402.7996,311.04995,403.2706,310.70064Q403.7416,310.35133,404.2292,310.02555Q404.7167,309.69977,405.2197,309.3983Q405.7226,309.09684,406.2398,308.82042Q406.7569,308.54399,407.287,308.29328Q407.8171,308.04257,408.3589,307.81816Q408.9006,307.59376,409.4527,307.39621Q410.0049,307.19867,410.56600000000003,307.02845Q411.1271,306.858226,411.696,306.715745Q412.2648,306.573264,412.8399,306.458865Q413.415,306.344466,413.9951,306.258425Q414.5751,306.172384,415.1587,306.114907Q415.7422,306.0574311,416.3279,306.0286583Q416.9136,305.999885559,417.5,305.999885559Q418.0864,305.999885559,418.6721,306.0286583Q419.2577,306.0574311,419.8413,306.114907Q420.4249,306.172384,421.0049,306.258425Q421.585,306.344466,422.1601,306.458865Q422.7352,306.573264,423.304,306.715745Q423.8728,306.858226,424.43399999999997,307.02845Q424.9951,307.19867,425.5472,307.39621Q426.09929999999997,307.59376,426.6411,307.81816Q427.1828,308.04257,427.7129,308.29328Q428.243,308.54399,428.7602,308.82042Q429.27729999999997,309.09684,429.7803,309.3983Q430.28319999999997,309.69977,430.7708,310.02555Q431.2584,310.35133,431.7294,310.70064Q432.2004,311.04995,432.6536,311.42195Q433.1069,311.79396,433.5414,312.18775Q433.9759,312.58154,434.3905,312.99619Q434.8052,313.41083,435.199,313.84531Q435.5928,314.2798,435.96479999999997,314.73308Q436.3368,315.18637,436.6861,315.65736Q437.0354,316.1284,437.3612,316.6159Q437.687,317.1035,437.9884,317.6064Q438.2899,318.1094,438.5663,318.6266Q438.8427,319.1437,439.0934,319.6738Q439.3442,320.2039,439.5686,320.7456Q439.793,321.2874,439.9905,321.8395Q440.1881,322.3916,440.3583,322.9528Q440.5285,323.5139,440.671,324.0827Q440.8135,324.6515,440.9279,325.2267Q441.0423,325.8018,441.12829999999997,326.3818Q441.2143,326.9619,441.2718,327.5454Q441.3293,328.129,441.3581,328.7147Q441.38689999999997,329.3004,441.38689999999997,329.8867L441.38689999999997,340.7446L453.11310000000003,340.7446Q453.6995,340.7446,454.28520000000003,340.7734Q454.8709,340.80219999999997,455.4545,340.8597Q456.038,340.9171,456.6181,341.0032Q457.1981,341.0892,457.7732,341.2036Q458.348,341.318,458.91700000000003,341.4605Q459.486,341.603,460.047,341.7732Q460.608,341.9434,461.15999999999997,342.141Q461.712,342.3385,462.254,342.5629Q462.796,342.7873,463.326,343.038Q463.856,343.2887,464.373,343.5652Q464.89,343.84159999999997,465.39300000000003,344.14300000000003Q465.896,344.4445,466.384,344.7703Q466.872,345.0961,467.343,345.4454Q467.81399999999996,345.7947,468.267,346.1667Q468.72,346.5387,469.155,346.9325Q469.589,347.3263,470.004,347.7409Q470.418,348.1556,470.812,348.5901Q471.206,349.0245,471.578,349.4778Q471.95,349.9311,472.299,350.4021Q472.649,350.8731,472.974,351.3607Q473.3,351.8482,473.602,352.3512Q473.903,352.8541,474.179,353.3713Q474.456,353.8884,474.707,354.4185Q474.957,354.9486,475.182,355.4904Q475.406,356.0321,475.604,356.5842Q475.801,357.1364,475.971,357.6975Q476.142,358.2586,476.284,358.8274Q476.427,359.3963,476.541,359.9714Q476.655,360.5465,476.741,361.1266Q476.827,361.7066,476.885,362.2902Q476.942,362.8737,476.971,363.4594Q477,364.0451,477,364.6315Q477,365.2179,476.971,365.8036Q476.942,366.3892,476.885,366.9728Q476.827,367.5564,476.741,368.1364Q476.655,368.7165,476.541,369.2916Q476.427,369.8667,476.284,370.4355Q476.142,371.0043,475.971,371.5655Q475.801,372.1266,475.604,372.6787Q475.406,373.2308,475.182,373.7726Q474.957,374.3144,474.707,374.8444Q474.456,375.3745,474.179,375.8917Q473.903,376.4088,473.602,376.91179999999997Q473.3,377.4148,472.974,377.90229999999997Q472.649,378.3899,472.299,378.8609Q471.95,379.3319,471.578,379.78520000000003Q471.206,380.2384,470.812,380.6729Q470.418,381.1074,470.004,381.5221Q469.589,381.9367,469.155,382.33050000000003Q468.72,382.72429999999997,468.267,383.0963Q467.81399999999996,383.4683,467.343,383.81759999999997Q466.872,384.1669,466.384,384.4927Q465.896,384.8185,465.39300000000003,385.11990000000003Q464.89,385.4214,464.373,385.69780000000003Q463.856,385.97429999999997,463.326,386.225Q462.796,386.4757,462.254,386.7001Q461.712,386.92449999999997,461.15999999999997,387.122Q460.608,387.3196,460.047,387.4898Q459.486,387.65999999999997,458.91700000000003,387.8025Q458.348,387.945,457.7732,388.0594Q457.1981,388.1738,456.6181,388.2598Q456.038,388.34590000000003,455.4545,388.4033Q454.8709,388.4608,454.28520000000003,388.4896Q453.6995,388.5184,453.11310000000003,388.5184L381.8869,388.5184Q381.3005,388.5184,380.7148,388.4896Q380.1291,388.4608,379.5455,388.4033Q378.962,388.34590000000003,378.3819,388.2598Q377.8019,388.1738,377.2268,388.0594Q376.6516,387.945,376.0828,387.8025Q375.514,387.65999999999997,374.9529,387.4898Q374.3917,387.3196,373.8396,387.122Q373.2875,386.92449999999997,372.7458,386.7001Q372.204,386.4757,371.6739,386.225Q371.1438,385.9742,370.6267,385.69780000000003Q370.1095,385.4214,369.6066,385.11990000000003Q369.10360000000003,384.8185,368.616,384.4927Q368.1285,384.1669,367.65747,383.81759999999997Q367.18648,383.4683,366.7332,383.0963Q366.27991,382.72429999999997,365.84543,382.33050000000003Q365.41094,381.9367,364.9963,381.522Q364.58166,381.1074,364.18786,380.6729Q363.79407,380.2384,363.42207,379.7851Q363.05007,379.3319,362.70075,378.8609Q362.35144,378.3899,362.02566,377.90229999999997Q361.69988,377.4147,361.39842,376.91179999999997Q361.09695,376.4088,360.82053,375.8917Q360.54411,375.3745,360.29339,374.8444Q360.04268,374.3143,359.81828,373.7726Q359.59388,373.2308,359.39633,372.6787Q359.19878,372.1266,359.02856,371.5655Q358.85834,371.0043,358.715859,370.4355Q358.573378,369.8667,358.458979,369.2916Q358.34458,368.7165,358.258539,368.1364Q358.172498,367.5564,358.115022,366.9728Q358.0575455,366.3893,358.0287728,365.8036Q358,365.2179,358,364.6315Q358,364.0451,358.0287728,363.4594Q358.0575455,362.8737,358.115022,362.2902Q358.172498,361.7066,358.258539,361.1266Q358.34458,360.5465,358.458979,359.9714Q358.573378,359.3963,358.715859,358.8274Q358.85834,358.2586,359.02856,357.6975Q359.19878,357.1364,359.39633,356.5842Q359.59388,356.0321,359.81828,355.4904Q360.04268,354.9486,360.29339,354.4185Q360.54411,353.8884,360.82053,353.3713Q361.09695,352.8541,361.39842,352.3512Q361.69988,351.8482,362.02566,351.3607Q362.35144,350.8731,362.70075,350.4021Q363.05007,349.9311,363.42207,349.4778Q363.79407,349.0245,364.18786,348.5901Q364.58166,348.1556,364.9963,347.7409Q365.41094,347.3263,365.84543,346.9325Q366.27991,346.5387,366.7332,346.1667Q367.18648,345.7947,367.65747,345.4454Q368.1285,345.0961,368.616,344.7703Q369.10360000000003,344.4445,369.6066,344.14300000000003Q370.1095,343.84159999999997,370.6267,343.5652Q371.1438,343.2887,371.6739,343.038Q372.204,342.7873,372.7458,342.5629Q373.2875,342.3385,373.8396,342.141Q374.3917,341.9434,374.9529,341.7732Q375.514,341.603,376.0828,341.4605Q376.6516,341.318,377.2268,341.2036Q377.8019,341.0892,378.3819,341.0032Q378.962,340.9171,379.5455,340.8597Q380.1291,340.80219999999997,380.7148,340.7734Q381.3005,340.7446,381.8869,340.7446L393.61310000000003,340.7446Z" fill-rule="evenodd" fill="url(#master_svg2_0_1268)" fill-opacity="1"/></g><g><path d="M349.7792,364L283,364Q282.509,364,282.0186,364.0240909Q281.5283,364.0481817,281.0397,364.0963055Q280.551,364.144429,280.0654,364.21647Q279.5797,364.28851,279.0982,364.384294Q278.6167,364.480078,278.1404,364.599375Q277.6641,364.718671,277.1943,364.861193Q276.7245,365.00371,276.2622,365.16912Q275.7999,365.33452,275.3463,365.52241Q274.8927,365.7103,274.4489,365.92021Q274.0051,366.13013,273.5721,366.36157Q273.1391,366.59302,272.71794,366.84543Q272.29682,367.09784,271.88859,367.37061Q271.48036,367.64338,271.08601,367.93585Q270.69166,368.22832,270.31213,368.53979Q269.93261,368.85126,269.56882,369.18098Q269.20503,369.51069,268.85786,369.85786Q268.51069,370.20503,268.18098,370.56882Q267.85126,370.93261,267.53979,371.31213Q267.22832,371.69166,266.93585,372.08601Q266.64338,372.48036,266.37061,372.88859Q266.09784,373.29682,265.84543,373.71794Q265.59302,374.1391,265.36157,374.5721Q265.13013,375.0051,264.92021,375.4489Q264.7103,375.8927,264.52241,376.3463Q264.33452,376.7999,264.16912,377.2622Q264.00371,377.7245,263.861193,378.1943Q263.718671,378.6641,263.599375,379.1404Q263.480078,379.6167,263.384294,380.0982Q263.28851,380.5797,263.21647,381.0654Q263.144429,381.551,263.0963055,382.0397Q263.0481817,382.5283,263.0240909,383.0186Q263,383.509,263,384L263,652Q263,652.491,263.0240909,652.981Q263.0481817,653.472,263.0963055,653.96Q263.144429,654.4490000000001,263.21647,654.935Q263.28851,655.4200000000001,263.384294,655.902Q263.480078,656.383,263.599375,656.86Q263.718671,657.336,263.861193,657.806Q264.00371,658.275,264.16912,658.738Q264.33452,659.2,264.52241,659.654Q264.7103,660.107,264.92021,660.5509999999999Q265.13013,660.995,265.36157,661.428Q265.59302,661.861,265.84543,662.2819999999999Q266.09784,662.703,266.37061,663.111Q266.64338,663.52,266.93585,663.914Q267.22832,664.308,267.53979,664.688Q267.85126,665.067,268.18098,665.431Q268.51069,665.7950000000001,268.85786,666.142Q269.20503,666.489,269.56882,666.819Q269.93261,667.149,270.31213,667.46Q270.69166,667.7719999999999,271.08601,668.0640000000001Q271.48036,668.357,271.88859,668.629Q272.29682,668.902,272.71794,669.155Q273.1391,669.4069999999999,273.5721,669.6379999999999Q274.0051,669.87,274.4489,670.0799999999999Q274.8927,670.29,275.3463,670.4780000000001Q275.7999,670.665,276.2622,670.831Q276.7245,670.996,277.1943,671.139Q277.6641,671.281,278.1404,671.4010000000001Q278.6167,671.52,279.0982,671.616Q279.5797,671.711,280.0654,671.784Q280.551,671.856,281.0397,671.904Q281.5283,671.952,282.0186,671.976Q282.509,672,283,672L555,672Q555.491,672,555.981,671.976Q556.472,671.952,556.96,671.904Q557.4490000000001,671.856,557.935,671.784Q558.4200000000001,671.711,558.902,671.616Q559.383,671.52,559.86,671.4010000000001Q560.336,671.281,560.806,671.139Q561.2760000000001,670.996,561.738,670.831Q562.2,670.665,562.654,670.4780000000001Q563.107,670.29,563.5509999999999,670.0799999999999Q563.995,669.87,564.428,669.6379999999999Q564.861,669.4069999999999,565.2819999999999,669.155Q565.703,668.902,566.111,668.629Q566.52,668.357,566.914,668.0640000000001Q567.308,667.7719999999999,567.688,667.46Q568.067,667.149,568.431,666.819Q568.7950000000001,666.489,569.142,666.142Q569.489,665.7950000000001,569.819,665.431Q570.149,665.067,570.46,664.688Q570.7719999999999,664.308,571.0640000000001,663.914Q571.357,663.52,571.629,663.111Q571.902,662.703,572.155,662.2819999999999Q572.4069999999999,661.861,572.6379999999999,661.428Q572.87,660.995,573.0799999999999,660.5509999999999Q573.29,660.107,573.4780000000001,659.654Q573.665,659.2,573.831,658.738Q573.996,658.275,574.139,657.806Q574.281,657.336,574.4010000000001,656.86Q574.52,656.383,574.616,655.902Q574.711,655.4200000000001,574.784,654.935Q574.856,654.4490000000001,574.904,653.96Q574.952,653.472,574.976,652.981Q575,652.491,575,652L575,384Q575,383.509,574.976,383.0186Q574.952,382.5283,574.904,382.0397Q574.856,381.551,574.784,381.0654Q574.711,380.5797,574.616,380.0982Q574.52,379.6167,574.4010000000001,379.1404Q574.281,378.6641,574.139,378.1943Q573.996,377.7245,573.831,377.2622Q573.665,376.7999,573.4780000000001,376.3463Q573.29,375.8927,573.0799999999999,375.4489Q572.87,375.0051,572.6379999999999,374.5721Q572.4069999999999,374.1391,572.155,373.71794Q571.902,373.29682,571.629,372.88859Q571.357,372.48036,571.0640000000001,372.08601Q570.7719999999999,371.69166,570.46,371.31213Q570.149,370.93261,569.819,370.56882Q569.489,370.20503,569.142,369.85786Q568.7950000000001,369.51069,568.431,369.18098Q568.067,368.85126,567.688,368.53979Q567.308,368.22832,566.914,367.93585Q566.52,367.64338,566.111,367.37061Q565.703,367.09784,565.2819999999999,366.84543Q564.861,366.59302,564.428,366.36157Q563.995,366.13013,563.5509999999999,365.92021Q563.107,365.7103,562.654,365.52241Q562.2,365.33452,561.738,365.16912Q561.2760000000001,365.00371,560.806,364.861193Q560.336,364.718671,559.86,364.599375Q559.383,364.480078,558.902,364.384294Q558.4200000000001,364.28851,557.935,364.21647Q557.4490000000001,364.144429,556.96,364.0963055Q556.472,364.0481817,555.981,364.0240909Q555.491,364,555,364L485.221,364Q486,367.20329,486,370.5Q486,371.17509,485.967,371.84936Q485.93399999999997,372.52363,485.868,373.19547Q485.801,373.86731,485.702,374.5351Q485.603,375.2029,485.472,375.865Q485.34000000000003,376.5271,485.176,377.182Q485.012,377.8368,484.81600000000003,378.4828Q484.62,379.1288,484.392,379.7645Q484.16499999999996,380.4001,483.90700000000004,381.0238Q483.648,381.6475,483.36,382.2578Q483.071,382.868,482.753,383.4634Q482.435,384.0588,482.08799999999997,384.63779999999997Q481.74,385.2169,481.365,385.77819999999997Q480.99,386.3395,480.58799999999997,386.8817Q480.18600000000004,387.424,479.75800000000004,387.9458Q479.329,388.4677,478.876,388.9679Q478.423,389.4681,477.945,389.9454Q477.46799999999996,390.4228,476.96799999999996,390.8762Q476.46799999999996,391.3295,475.946,391.7578Q475.424,392.1861,474.882,392.58820000000003Q474.339,392.9904,473.778,393.3654Q473.217,393.7405,472.63800000000003,394.0875Q472.05899999999997,394.4346,471.46299999999997,394.7528Q470.868,395.0711,470.25800000000004,395.3597Q469.647,395.6483,469.024,395.9067Q468.4,396.165,467.764,396.3925Q467.129,396.61990000000003,466.483,396.8159Q465.837,397.0118,465.182,397.1759Q464.527,397.3399,463.865,397.4716Q463.203,397.6033,462.53499999999997,397.7024Q461.86699999999996,397.8014,461.195,397.8676Q460.524,397.9337,459.849,397.9669Q459.175,398,458.5,398L376.5,398Q375.825,398,375.151,397.9669Q374.476,397.9337,373.805,397.8676Q373.133,397.8014,372.46500000000003,397.7024Q371.797,397.6033,371.135,397.4716Q370.473,397.3399,369.818,397.1759Q369.163,397.0118,368.517,396.8159Q367.871,396.61990000000003,367.236,396.3925Q366.6,396.165,365.976,395.9067Q365.352,395.6483,364.742,395.3597Q364.132,395.0711,363.53700000000003,394.7528Q362.9412,394.4346,362.36220000000003,394.0875Q361.7831,393.7405,361.22180000000003,393.3654Q360.6605,392.9904,360.1182,392.58820000000003Q359.576,392.1861,359.0542,391.7578Q358.5323,391.3295,358.0321,390.8762Q357.5319,390.4228,357.0546,389.9454Q356.5772,389.4681,356.1238,388.9679Q355.6705,388.4677,355.2422,387.9458Q354.8139,387.424,354.41179999999997,386.8817Q354.0096,386.3395,353.6346,385.77819999999997Q353.2595,385.2169,352.9125,384.63779999999997Q352.5654,384.0588,352.2472,383.4634Q351.9289,382.868,351.6403,382.2578Q351.3517,381.6475,351.0933,381.0238Q350.835,380.4001,350.6075,379.7645Q350.38009999999997,379.1288,350.1841,378.4828Q349.9882,377.8368,349.8241,377.182Q349.6601,376.5271,349.52840000000003,375.865Q349.3967,375.2029,349.2976,374.5351Q349.1986,373.86731,349.1324,373.19547Q349.0663,372.52363,349.0331,371.84936Q349,371.17509,349,370.5Q349,367.20329,349.7792,364Z" fill-rule="evenodd" fill="url(#master_svg3_0_1275)" fill-opacity="1"/></g><g><rect x="320" y="428" width="196" height="43" rx="10" fill="#FFFFFF" fill-opacity="1"/></g><g><g><rect x="338" y="509" width="148" height="12" rx="6" fill="#FFFFFF" fill-opacity="1"/></g><g><ellipse cx="326" cy="515" rx="6" ry="6" fill="#FFFFFF" fill-opacity="1"/></g></g><g><g><rect x="338" y="559" width="102" height="12" rx="6" fill="#FFFFFF" fill-opacity="1"/></g><g><ellipse cx="326" cy="565" rx="6" ry="6" fill="#FFFFFF" fill-opacity="1"/></g></g><g><ellipse cx="493" cy="275" rx="17" ry="17" fill="url(#master_svg4_0_1289)" fill-opacity="1"/></g><g transform="matrix(0,-1,1,0,-19,625)"><ellipse cx="313.5" cy="332.5" rx="10.5" ry="10.5" fill="url(#master_svg5_0_1289)" fill-opacity="1"/></g><g transform="matrix(0,-1,1,0,193,895)"><ellipse cx="554.5" cy="361.5" rx="10.5" ry="10.5" fill="url(#master_svg6_0_1293)" fill-opacity="1"/></g></g></g></svg>
